<svg xmlns="http://www.w3.org/2000/svg" width="1em" height="1em">
    <symbol id="gmail" viewBox="0 0 24 24">
        <path fill="#50ada3" d="m18.73 5.41l-1.28 1L12 10.46L6.55 6.37l-1.28-1A2 2 0 0 0 2 7.05v11.59A1.36 1.36 0 0 0 3.36 20h3.19v-7.72L12 16.37l5.45-4.09V20h3.19A1.36 1.36 0 0 0 22 18.64V7.05a2 2 0 0 0-3.27-1.64z"/>
    </symbol>

    <symbol id="github-loop" viewBox="0 0 24 24">
        <mask id="lineMdGithubLoop0" width="24" height="24" x="0" y="0"><g fill="#fff"><ellipse cx="9.5" cy="9" rx="1.5" ry="1"/><ellipse cx="14.5" cy="9" rx="1.5" ry="1"/></g></mask><g fill="none" stroke="#50ADA3" stroke-linecap="round" stroke-linejoin="round" stroke-width="2"><path stroke-dasharray="30" stroke-dashoffset="30" d="M12 4C13.6683 4 14.6122 4.39991 15 4.5C15.5255 4.07463 16.9375 3 18.5 3C18.8438 4 18.7863 5.21921 18.5 6C19.25 7 19.5 8 19.5 9.5C19.5 11.6875 19.017 13.0822 18 14C16.983 14.9178 15.8887 15.3749 14.5 15.5C15.1506 16.038 15 17.3743 15 18C15 18.7256 15 21 15 21M12 4C10.3317 4 9.38784 4.39991 9 4.5C8.47455 4.07463 7.0625 3 5.5 3C5.15625 4 5.21371 5.21921 5.5 6C4.75 7 4.5 8 4.5 9.5C4.5 11.6875 4.98301 13.0822 6 14C7.01699 14.9178 8.1113 15.3749 9.5 15.5C8.84944 16.038 9 17.3743 9 18C9 18.7256 9 21 9 21"><animate fill="freeze" attributeName="stroke-dashoffset" dur="0.6s" values="30;0"/></path><path stroke-dasharray="10" stroke-dashoffset="10" d="M9 19"><animate fill="freeze" attributeName="stroke-dashoffset" begin="0.7s" dur="0.2s" values="10;0"/><animate attributeName="d" dur="3s" repeatCount="indefinite" values="M9 19c-1.406 0-2.844-.563-3.688-1.188C4.47 17.188 4.22 16.157 3 15.5;M9 19c-1.406 0-3-.5-4-.5-.532 0-1 0-2-.5;M9 19c-1.406 0-2.844-.563-3.688-1.188C4.47 17.188 4.22 16.157 3 15.5"/></path></g><rect width="8" height="4" x="8" y="11" fill="#50ADA3" mask="url(#lineMdGithubLoop0)"><animate attributeName="y" dur="10s" keyTimes="0;0.45;0.46;0.54;0.55;1" repeatCount="indefinite" values="11;11;7;7;11;11"/></rect>
    </symbol>

    <symbol id="linkedIn" viewBox="0 0 32 32">
        <path fill="#50ada3" d="M8.268 28H2.463V9.306h5.805zM5.362 6.756C3.506 6.756 2 5.218 2 3.362a3.362 3.362 0 0 1 6.724 0c0 1.856-1.506 3.394-3.362 3.394zM29.994 28h-5.792v-9.1c0-2.169-.044-4.95-3.018-4.95c-3.018 0-3.481 2.356-3.481 4.794V28h-5.799V9.306h5.567v2.55h.081c.775-1.469 2.668-3.019 5.492-3.019c5.875 0 6.955 3.869 6.955 8.894V28z"/>
    </symbol>
</svg>