<svg xmlns="http://www.w3.org/2000/svg" width="1rem" height="1rem">

    <symbol id="house-user" viewBox="0 0 28 28">
        <path fill="#e3e2e9" d="M12 18a3.5 3.5 0 1 1 3.5-3.5A3.504 3.504 0 0 1 12 18Z" opacity=".5"></path>
        <path fill="#e3e2e9" d="M14.64 16.772a3.452 3.452 0 0 1-5.28 0A4.988 4.988 0 0 0 7 21a1 1 0 0 0 1 1h8a1 1 0 0 0 1-1a4.988 4.988 0 0 0-2.36-4.228Z"></path>
        <path fill="#e3e2e9" d="M21 12a.996.996 0 0 1-.664-.252L12 4.338l-8.336 7.41a1 1 0 0 1-1.328-1.496l9-8a.999.999 0 0 1 1.328 0l9 8A1 1 0 0 1 21 12Z" opacity=".5"></path>
        <path fill="#e3e2e9" d="m12 4.338l-8 7.111V21a1 1 0 0 0 1 1h3a1 1 0 0 1-1-1a4.988 4.988 0 0 1 2.36-4.228A3.469 3.469 0 0 1 8.5 14.5a3.5 3.5 0 0 1 7 0a3.469 3.469 0 0 1-.86 2.272A4.988 4.988 0 0 1 17 21a1 1 0 0 1-1 1h3a1 1 0 0 0 1-1v-9.551Z" opacity=".25"></path>
    </symbol>

    <symbol id="user-circle" viewBox="0 0 272 272">
        <g fill="#e3e2e9">
            <path d="M224 128a95.76 95.76 0 0 1-31.8 71.37A72 72 0 0 0 128 160a40 40 0 1 0-40-40a40 40 0 0 0 40 40a72 72 0 0 0-64.2 39.37A96 96 0 0 1 184.92 50.69a16 16 0 0 0 20.39 20.39A95.61 95.61 0 0 1 224 128Z" opacity=".2"/>
            <path d="m228.25 63.07l-4.66-2.69a23.6 23.6 0 0 0 0-8.76l4.66-2.69a8 8 0 0 0-8-13.86l-4.67 2.7a23.92 23.92 0 0 0-7.58-4.39V28a8 8 0 0 0-16 0v5.38a23.92 23.92 0 0 0-7.58 4.39l-4.67-2.7a8 8 0 1 0-8 13.86l4.66 2.69a23.6 23.6 0 0 0 0 8.76l-4.66 2.69a8 8 0 0 0 4 14.93a7.92 7.92 0 0 0 4-1.07l4.67-2.7a23.92 23.92 0 0 0 7.58 4.39V84a8 8 0 0 0 16 0v-5.38a23.92 23.92 0 0 0 7.58-4.39l4.67 2.7a7.92 7.92 0 0 0 4 1.07a8 8 0 0 0 4-14.93ZM192 56a8 8 0 1 1 8 8a8 8 0 0 1-8-8Zm29.35 48.11a8 8 0 0 0-6.57 9.21A88.85 88.85 0 0 1 216 128a87.62 87.62 0 0 1-22.24 58.41a79.66 79.66 0 0 0-36.06-28.75a48 48 0 1 0-59.4 0a79.66 79.66 0 0 0-36.06 28.75A88 88 0 0 1 128 40a88.76 88.76 0 0 1 14.68 1.22a8 8 0 0 0 2.64-15.78a103.92 103.92 0 1 0 85.24 85.24a8 8 0 0 0-9.21-6.57ZM96 120a32 32 0 1 1 32 32a32 32 0 0 1-32-32Zm-21.92 77.5a64 64 0 0 1 107.84 0a87.83 87.83 0 0 1-107.84 0Z"/>
        </g>
    </symbol>

    <symbol id="open-folder" viewBox="0 0 256 256">
            <g fill="#e3e2e9">
            <path d="M208 88v24H69.77a8 8 0 0 0-7.59 5.47L32 208V64a8 8 0 0 1 8-8h53.33a8 8 0 0 1 4.8 1.6l27.74 20.8a8 8 0 0 0 4.8 1.6H200a8 8 0 0 1 8 8Z" opacity=".2"/>
            <path d="M245 110.64a16 16 0 0 0-13-6.64h-16V88a16 16 0 0 0-16-16h-69.33l-27.73-20.8a16.14 16.14 0 0 0-9.6-3.2H40a16 16 0 0 0-16 16v144a8 8 0 0 0 8 8h179.1a8 8 0 0 0 7.59-5.47l28.49-85.47a16.05 16.05 0 0 0-2.18-14.42ZM93.34 64l27.73 20.8a16.12 16.12 0 0 0 9.6 3.2H200v16H69.77a16 16 0 0 0-15.18 10.94L40 158.7V64Zm112 136H43.1l26.67-80H232Z"/>
        </g>
    </symbol>

    <symbol id="book" viewBox="0 0 272 272">
        <g fill="#e3e2e9">
            <path d="M208 32v160H72a24 24 0 0 0-24 24V56a24 24 0 0 1 24-24h40v96l32-24l32 24V32Z" opacity=".2"/>
            <path d="M208 24H72a32 32 0 0 0-32 32v168a8 8 0 0 0 8 8h144a8 8 0 0 0 0-16H56a16 16 0 0 1 16-16h136a8 8 0 0 0 8-8V32a8 8 0 0 0-8-8Zm-88 16h48v72l-19.21-14.4a8 8 0 0 0-9.6 0L120 112Zm80 144H72a31.82 31.82 0 0 0-16 4.29V56a16 16 0 0 1 16-16h32v88a8 8 0 0 0 12.8 6.4L144 114l27.21 20.4A8 8 0 0 0 176 136a8.1 8.1 0 0 0 3.58-.84A8 8 0 0 0 184 128V40h16Z"/>
        </g>
    </symbol>
</svg>