<svg xmlns="http://www.w3.org/2000/svg" width="1rem" height="1rem">

    <symbol id="house-user" viewBox="0 0 28 28">
        <path fill-rule="evenodd" clip-rule="evenodd" d="M21.5315 11.5856L20.75 10.9605V21.25H22C22.4142 21.25 22.75 21.5858 22.75 22C22.75 22.4142 22.4142 22.75 22 22.75H2.00003C1.58581 22.75 1.25003 22.4142 1.25003 22C1.25003 21.5858 1.58581 21.25 2.00003 21.25H3.25003V10.9605L2.46855 11.5856C2.1451 11.8444 1.67313 11.792 1.41438 11.4685C1.15562 11.1451 1.20806 10.6731 1.53151 10.4143L9.65742 3.9136C11.027 2.81794 12.9731 2.81794 14.3426 3.9136L22.4685 10.4143C22.792 10.6731 22.8444 11.1451 22.5857 11.4685C22.3269 11.792 21.855 11.8444 21.5315 11.5856ZM12 6.74998C10.4812 6.74998 9.25003 7.9812 9.25003 9.49998C9.25003 11.0188 10.4812 12.25 12 12.25C13.5188 12.25 14.75 11.0188 14.75 9.49998C14.75 7.9812 13.5188 6.74998 12 6.74998ZM13.7459 13.3116C13.2871 13.2499 12.7143 13.2499 12.0494 13.25H11.9507C11.2858 13.2499 10.7129 13.2499 10.2542 13.3116C9.76255 13.3777 9.29128 13.5267 8.90904 13.909C8.52679 14.2912 8.37773 14.7625 8.31163 15.2541C8.24996 15.7129 8.24999 16.2857 8.25003 16.9506L8.25003 21.25H9.75003H14.25H15.75L15.75 16.9506L15.75 16.827C15.7498 16.2146 15.7462 15.6842 15.6884 15.2541C15.6223 14.7625 15.4733 14.2912 15.091 13.909C14.7088 13.5267 14.2375 13.3777 13.7459 13.3116Z" fill="#E6F4DC"/>
        <g opacity="0.5">
        <path fill-rule="evenodd" clip-rule="evenodd" d="M10.75 9.5C10.75 8.80964 11.3096 8.25 12 8.25C12.6904 8.25 13.25 8.80964 13.25 9.5C13.25 10.1904 12.6904 10.75 12 10.75C11.3096 10.75 10.75 10.1904 10.75 9.5Z" fill="#E6F4DC"/>
        <path fill-rule="evenodd" clip-rule="evenodd" d="M10.75 9.5C10.75 8.80964 11.3096 8.25 12 8.25C12.6904 8.25 13.25 8.80964 13.25 9.5C13.25 10.1904 12.6904 10.75 12 10.75C11.3096 10.75 10.75 10.1904 10.75 9.5Z" fill="#E6F4DC"/>
        </g>
        <path opacity="0.5" d="M12.0494 13.2501C12.7142 13.25 13.2871 13.25 13.7458 13.3117C14.2375 13.3778 14.7087 13.5268 15.091 13.9091C15.4732 14.2913 15.6223 14.7626 15.6884 15.2542C15.7462 15.6843 15.7498 16.2147 15.75 16.8271L15.75 21.2501H8.25L8.25 16.9507C8.24997 16.2858 8.24993 15.713 8.31161 15.2542C8.37771 14.7626 8.52677 14.2913 8.90901 13.9091C9.29126 13.5268 9.76252 13.3778 10.2542 13.3117C10.7129 13.25 11.2858 13.25 11.9506 13.2501H12.0494Z" fill="#E6F4DC"/>
        <path opacity="0.5" d="M16 3H18.5C18.7761 3 19 3.22386 19 3.5L19 7.63955L15.5 4.83955V3.5C15.5 3.22386 15.7239 3 16 3Z" fill="#E6F4DC"/>
    </symbol>

    <symbol id="user-circle" width="24" height="24" viewBox="0 0 24 24" fill="none">
        <path opacity="0.5" d="M22 12C22 17.5228 17.5228 22 12 22C6.47715 22 2 17.5228 2 12C2 6.47715 6.47715 2 12 2C17.5228 2 22 6.47715 22 12Z" fill="#E6F4DC"/>
        <path d="M16.807 19.0112C15.4398 19.9504 13.7841 20.5 12 20.5C10.2159 20.5 8.56023 19.9503 7.193 19.0111C6.58915 18.5963 6.33109 17.8062 6.68219 17.1632C7.41001 15.8302 8.90973 15 12 15C15.0903 15 16.59 15.8303 17.3178 17.1632C17.6689 17.8062 17.4108 18.5964 16.807 19.0112Z" fill="#E6F4DC"/>
        <path d="M12 12C13.6569 12 15 10.6569 15 9C15 7.34315 13.6569 6 12 6C10.3432 6 9.00004 7.34315 9.00004 9C9.00004 10.6569 10.3432 12 12 12Z" fill="#E6F4DC"/>
    </symbol>

    <symbol id="open-folder" width="24" height="24" viewBox="0 0 24 24" fill="none">
        <path fill-rule="evenodd" clip-rule="evenodd" d="M3.35791 12.7787C2.74772 13.7201 2.99956 15.0291 3.50323 17.647C3.8658 19.5316 4.04709 20.4738 4.67523 21.0991C4.8382 21.2614 5.02054 21.4052 5.2186 21.5277C5.98195 21.9999 6.99539 21.9999 9.02227 21.9999H15.9777C18.0046 21.9999 19.0181 21.9999 19.7814 21.5277C19.9795 21.4052 20.1618 21.2614 20.3248 21.0991C20.9529 20.4738 21.1342 19.5316 21.4968 17.647C22.0004 15.0291 22.2523 13.7201 21.6421 12.7787C21.4864 12.5384 21.2943 12.321 21.0721 12.1332C20.2011 11.3975 18.7933 11.3975 15.9777 11.3975H9.02227C6.20667 11.3975 4.79888 11.3975 3.92792 12.1332C3.70566 12.321 3.51363 12.5384 3.35791 12.7787ZM9.69518 17.1806C9.69518 16.7814 10.0376 16.4577 10.4601 16.4577H14.5398C14.9622 16.4577 15.3047 16.7814 15.3047 17.1806C15.3047 17.5798 14.9622 17.9035 14.5398 17.9035H10.4601C10.0376 17.9035 9.69518 17.5798 9.69518 17.1806Z" fill="#E6F4DC"/>
        <path opacity="0.5" d="M3.5762 12.4846C3.68271 12.3586 3.80034 12.241 3.92792 12.1332C4.79888 11.3975 6.20667 11.3975 9.02227 11.3975H15.9777C18.7933 11.3975 20.2011 11.3975 21.0721 12.1332C21.2 12.2413 21.3179 12.3592 21.4247 12.4857V9.75579C21.4247 8.84687 21.4247 8.09279 21.3394 7.49156C21.2494 6.85704 21.0531 6.29458 20.5839 5.83245C20.5074 5.75707 20.4266 5.68552 20.342 5.61807C19.8302 5.21023 19.2167 5.04345 18.5222 4.96608C17.8531 4.89155 17.0102 4.89157 15.9769 4.89158L15.6242 4.89158C14.6421 4.89158 14.29 4.88587 13.9711 4.80533C13.7837 4.75802 13.604 4.69195 13.4352 4.60878C13.151 4.46867 12.9033 4.25762 12.2077 3.64132L11.7336 3.22128C11.5345 3.04489 11.3987 2.9245 11.2531 2.81755C10.6284 2.35879 9.86779 2.08132 9.07145 2.01534C8.88602 1.99998 8.6968 1.99999 8.41356 2.00002L8.29714 2.00001C7.65647 1.9999 7.23365 1.99983 6.86652 2.0612C5.26167 2.32947 3.96392 3.45143 3.64782 4.93575C3.57591 5.27344 3.57602 5.66035 3.57619 6.21853L3.5762 12.4846Z" fill="#E6F4DC"/>
    </symbol>

    <symbol id="book" width="24" height="24" viewBox="0 0 24 24" fill="none">
        <path opacity="0.5" d="M12 20.0283V18H8L8 20.0283C8 20.3054 8 20.444 8.09485 20.5C8.18971 20.556 8.31943 20.494 8.57888 20.3701L9.82112 19.7766C9.9089 19.7347 9.95279 19.7138 10 19.7138C10.0472 19.7138 10.0911 19.7347 10.1789 19.7767L11.4211 20.3701C11.6806 20.494 11.8103 20.556 11.9051 20.5C12 20.444 12 20.3054 12 20.0283Z" fill="#E6F4DC"/>
        <path d="M8 18H7.42598C6.34236 18 5.96352 18.0057 5.67321 18.0681C5.15982 18.1785 4.71351 18.4151 4.38811 18.7347C4.27837 18.8425 4.22351 18.8964 4.09696 19.2397C3.97041 19.5831 3.99045 19.7288 4.03053 20.02C4.03761 20.0714 4.04522 20.1216 4.05343 20.1706C4.16271 20.8228 4.36259 21.1682 4.66916 21.4142C4.97573 21.6602 5.40616 21.8206 6.21896 21.9083C7.05566 21.9986 8.1646 22 9.75461 22H14.1854C15.7754 22 16.8844 21.9986 17.7211 21.9083C18.5339 21.8206 18.9643 21.6602 19.2709 21.4142C19.5774 21.1682 19.7773 20.8228 19.8866 20.1706C19.9784 19.6228 19.9965 18.9296 20 18H12V20.0283C12 20.3054 12 20.444 11.9051 20.5C11.8103 20.556 11.6806 20.494 11.4211 20.3701L10.1789 19.7767C10.0911 19.7347 10.0472 19.7138 10 19.7138C9.95279 19.7138 9.9089 19.7347 9.82112 19.7766L8.57888 20.3701C8.31943 20.494 8.18971 20.556 8.09485 20.5C8 20.444 8 20.3054 8 20.0283V18Z" fill="#E6F4DC"/>
        <path opacity="0.5" d="M4.72718 2.73332C5.03258 2.42535 5.46135 2.22456 6.27103 2.11478C7.10452 2.00177 8.2092 2 9.7931 2H14.2069C15.7908 2 16.8955 2.00177 17.729 2.11478C18.5387 2.22456 18.9674 2.42535 19.2728 2.73332C19.5782 3.0413 19.7773 3.47368 19.8862 4.2902C19.9982 5.13073 20 6.24474 20 7.84202L20 18H7.42598C6.34236 18 5.96352 18.0057 5.67321 18.0681C5.15982 18.1785 4.71351 18.4151 4.38811 18.7347C4.27837 18.8425 4.22351 18.8964 4.09696 19.2397C4.02435 19.4367 4 19.5687 4 19.7003V7.84202C4 6.24474 4.00176 5.13073 4.11382 4.2902C4.22268 3.47368 4.42179 3.0413 4.72718 2.73332Z" fill="#E6F4DC"/>
        <path d="M7.25 7C7.25 6.58579 7.58579 6.25 8 6.25H16C16.4142 6.25 16.75 6.58579 16.75 7C16.75 7.41421 16.4142 7.75 16 7.75H8C7.58579 7.75 7.25 7.41421 7.25 7Z" fill="#E6F4DC"/>
        <path d="M8 9.75C7.58579 9.75 7.25 10.0858 7.25 10.5C7.25 10.9142 7.58579 11.25 8 11.25H13C13.4142 11.25 13.75 10.9142 13.75 10.5C13.75 10.0858 13.4142 9.75 13 9.75H8Z" fill="#E6F4DC"/>
    </symbol>
</svg>